<mxfile host="65bd71144e">
    <diagram id="4wRR9-Q07Fslc2tIpHIC" name="Page-1">
        <mxGraphModel dx="612" dy="1239" grid="1" gridSize="10" guides="1" tooltips="1" connect="1" arrows="1" fold="1" page="1" pageScale="1" pageWidth="850" pageHeight="1100" math="0" shadow="0">
            <root>
                <mxCell id="0"/>
                <mxCell id="1" parent="0"/>
                <mxCell id="40" value="" style="endArrow=none;dashed=1;html=1;entryX=0.5;entryY=1;entryDx=0;entryDy=0;exitX=0.5;exitY=0;exitDx=0;exitDy=0;" parent="1" source="34" target="32" edge="1">
                    <mxGeometry width="50" height="50" relative="1" as="geometry">
                        <mxPoint x="330" y="1250" as="sourcePoint"/>
                        <mxPoint x="639.66" y="930" as="targetPoint"/>
                    </mxGeometry>
                </mxCell>
                <mxCell id="36" value="" style="endArrow=none;dashed=1;html=1;entryX=0.5;entryY=1;entryDx=0;entryDy=0;exitX=0.138;exitY=-0.011;exitDx=0;exitDy=0;exitPerimeter=0;" parent="1" source="6" target="33" edge="1">
                    <mxGeometry width="50" height="50" relative="1" as="geometry">
                        <mxPoint x="600" y="540" as="sourcePoint"/>
                        <mxPoint x="650" y="490" as="targetPoint"/>
                    </mxGeometry>
                </mxCell>
                <mxCell id="2" value="Learn to plan financially" style="rounded=1;whiteSpace=wrap;html=1;glass=0;shadow=1;" parent="1" vertex="1">
                    <mxGeometry x="430" y="400" width="330" height="120" as="geometry"/>
                </mxCell>
                <mxCell id="4" value="" style="endArrow=none;html=1;" parent="1" edge="1">
                    <mxGeometry width="50" height="50" relative="1" as="geometry">
                        <mxPoint x="640" y="600" as="sourcePoint"/>
                        <mxPoint x="640" y="520" as="targetPoint"/>
                    </mxGeometry>
                </mxCell>
                <mxCell id="6" value="Earn tokens the more exercises and financial theory you see.&amp;nbsp;" style="rounded=1;whiteSpace=wrap;html=1;shadow=1;glass=0;sketch=0;" parent="1" vertex="1">
                    <mxGeometry x="120" y="600" width="640" height="130" as="geometry"/>
                </mxCell>
                <mxCell id="8" value="logo" style="ellipse;whiteSpace=wrap;html=1;aspect=fixed;rounded=1;shadow=1;glass=0;sketch=0;" parent="1" vertex="1">
                    <mxGeometry x="50" y="20" width="80" height="80" as="geometry"/>
                </mxCell>
                <mxCell id="9" value="PECCON" style="text;html=1;strokeColor=none;fillColor=none;align=center;verticalAlign=middle;whiteSpace=wrap;rounded=0;shadow=1;glass=0;sketch=0;" parent="1" vertex="1">
                    <mxGeometry x="160" y="45" width="60" height="30" as="geometry"/>
                </mxCell>
                <mxCell id="10" value="Home" style="text;html=1;strokeColor=none;fillColor=none;align=center;verticalAlign=middle;whiteSpace=wrap;rounded=0;shadow=1;glass=0;sketch=0;" parent="1" vertex="1">
                    <mxGeometry x="510" y="45" width="60" height="30" as="geometry"/>
                </mxCell>
                <mxCell id="11" value="Profile" style="text;html=1;strokeColor=none;fillColor=none;align=center;verticalAlign=middle;whiteSpace=wrap;rounded=0;shadow=1;glass=0;sketch=0;" parent="1" vertex="1">
                    <mxGeometry x="570" y="45" width="60" height="30" as="geometry"/>
                </mxCell>
                <mxCell id="12" value="Journey" style="text;html=1;strokeColor=none;fillColor=none;align=center;verticalAlign=middle;whiteSpace=wrap;rounded=0;shadow=1;glass=0;sketch=0;" parent="1" vertex="1">
                    <mxGeometry x="640" y="45" width="60" height="30" as="geometry"/>
                </mxCell>
                <mxCell id="13" value="Products" style="text;html=1;strokeColor=none;fillColor=none;align=center;verticalAlign=middle;whiteSpace=wrap;rounded=0;shadow=1;glass=0;sketch=0;" parent="1" vertex="1">
                    <mxGeometry x="710" y="45" width="60" height="30" as="geometry"/>
                </mxCell>
                <mxCell id="15" value="About" style="text;html=1;strokeColor=none;fillColor=none;align=center;verticalAlign=middle;whiteSpace=wrap;rounded=0;shadow=1;glass=0;sketch=0;" parent="1" vertex="1">
                    <mxGeometry x="780" y="45" width="60" height="30" as="geometry"/>
                </mxCell>
                <mxCell id="16" value="-------- Start&amp;nbsp; your journey here ---------" style="text;html=1;strokeColor=none;fillColor=none;align=center;verticalAlign=middle;whiteSpace=wrap;rounded=0;shadow=1;glass=0;sketch=0;" parent="1" vertex="1">
                    <mxGeometry x="233" y="220" width="385" height="30" as="geometry"/>
                </mxCell>
                <mxCell id="17" value="" style="shape=actor;whiteSpace=wrap;html=1;rounded=1;shadow=1;glass=0;sketch=0;" parent="1" vertex="1">
                    <mxGeometry x="405" y="140" width="40" height="60" as="geometry"/>
                </mxCell>
                <mxCell id="23" value="model investement decisions&amp;nbsp;" style="rounded=1;whiteSpace=wrap;html=1;glass=0;shadow=1;" parent="1" vertex="1">
                    <mxGeometry x="430" y="830" width="330" height="120" as="geometry"/>
                </mxCell>
                <mxCell id="25" value="get access to financial planning tools through the tokens&amp;nbsp;&amp;nbsp;" style="rounded=1;whiteSpace=wrap;html=1;shadow=1;glass=0;sketch=0;" parent="1" vertex="1">
                    <mxGeometry x="120" y="1030" width="640" height="130" as="geometry"/>
                </mxCell>
                <mxCell id="27" value="Start using community driven investment prodcuts" style="rounded=1;whiteSpace=wrap;html=1;glass=0;shadow=1;" parent="1" vertex="1">
                    <mxGeometry x="425" y="1240" width="330" height="120" as="geometry"/>
                </mxCell>
                <mxCell id="28" value="Start investing in community driven products, wich have low fees and societal impact" style="rounded=1;whiteSpace=wrap;html=1;shadow=1;glass=0;sketch=0;" parent="1" vertex="1">
                    <mxGeometry x="115" y="1440" width="640" height="130" as="geometry"/>
                </mxCell>
                <mxCell id="31" value="" style="rounded=0;whiteSpace=wrap;html=1;shadow=1;glass=0;sketch=0;" parent="1" vertex="1">
                    <mxGeometry x="15" y="1760" width="820" height="190" as="geometry"/>
                </mxCell>
                <mxCell id="32" value="2" style="ellipse;whiteSpace=wrap;html=1;aspect=fixed;rounded=1;shadow=1;glass=0;sketch=0;" parent="1" vertex="1">
                    <mxGeometry x="170" y="850" width="80" height="80" as="geometry"/>
                </mxCell>
                <mxCell id="33" value="1" style="ellipse;whiteSpace=wrap;html=1;aspect=fixed;rounded=1;shadow=1;glass=0;sketch=0;" parent="1" vertex="1">
                    <mxGeometry x="170" y="420" width="80" height="80" as="geometry"/>
                </mxCell>
                <mxCell id="34" value="3" style="ellipse;whiteSpace=wrap;html=1;aspect=fixed;rounded=1;shadow=1;glass=0;sketch=0;" parent="1" vertex="1">
                    <mxGeometry x="170" y="1260" width="80" height="80" as="geometry"/>
                </mxCell>
                <mxCell id="35" value="" style="endArrow=none;dashed=1;html=1;" parent="1" edge="1">
                    <mxGeometry width="50" height="50" relative="1" as="geometry">
                        <mxPoint x="430" y="460" as="sourcePoint"/>
                        <mxPoint x="250" y="460" as="targetPoint"/>
                    </mxGeometry>
                </mxCell>
                <mxCell id="41" value="" style="endArrow=none;dashed=1;html=1;exitX=0;exitY=0.5;exitDx=0;exitDy=0;" parent="1" source="23" edge="1">
                    <mxGeometry width="50" height="50" relative="1" as="geometry">
                        <mxPoint x="425" y="889.6600000000001" as="sourcePoint"/>
                        <mxPoint x="250" y="890" as="targetPoint"/>
                    </mxGeometry>
                </mxCell>
                <mxCell id="42" value="" style="endArrow=none;html=1;" parent="1" edge="1">
                    <mxGeometry width="50" height="50" relative="1" as="geometry">
                        <mxPoint x="639.66" y="1030" as="sourcePoint"/>
                        <mxPoint x="639.66" y="950" as="targetPoint"/>
                    </mxGeometry>
                </mxCell>
                <mxCell id="43" value="" style="endArrow=none;html=1;" parent="1" edge="1">
                    <mxGeometry width="50" height="50" relative="1" as="geometry">
                        <mxPoint x="639.9999999999999" y="1440" as="sourcePoint"/>
                        <mxPoint x="639.9999999999999" y="1360" as="targetPoint"/>
                    </mxGeometry>
                </mxCell>
                <mxCell id="44" value="" style="endArrow=none;dashed=1;html=1;" parent="1" edge="1">
                    <mxGeometry width="50" height="50" relative="1" as="geometry">
                        <mxPoint x="420" y="1300" as="sourcePoint"/>
                        <mxPoint x="249.9999999999999" y="1299.66" as="targetPoint"/>
                    </mxGeometry>
                </mxCell>
            </root>
        </mxGraphModel>
    </diagram>
</mxfile>